<svg width="15" height="23" viewBox="0 0 15 23" fill="none" xmlns="http://www.w3.org/2000/svg">
<path d="M6.5 21L6.5 22L8.5 22L8.5 21L6.5 21ZM8.20711 0.292892C7.81658 -0.0976314 7.18342 -0.0976315 6.79289 0.292892L0.428933 6.65685C0.0384084 7.04738 0.0384084 7.68054 0.428933 8.07107C0.819457 8.46159 1.45262 8.46159 1.84315 8.07107L7.5 2.41421L13.1569 8.07107C13.5474 8.46159 14.1805 8.46159 14.5711 8.07107C14.9616 7.68054 14.9616 7.04738 14.5711 6.65685L8.20711 0.292892ZM8.5 21L8.5 1L6.5 1L6.5 21L8.5 21Z" fill="white"/>
<line x1="2" y1="21.322" x2="13" y2="21.322" stroke="white" stroke-width="2"/>
</svg>
