<svg width="18" height="17" viewBox="0 0 18 17" fill="none" xmlns="http://www.w3.org/2000/svg">
<path fill-rule="evenodd" clip-rule="evenodd" d="M15.2929 2H8V0H15.2929C16.0109 0 16.6994 0.285212 17.2071 0.792893C17.7148 1.30057 18 1.98914 18 2.70711V14.2929C18 15.0109 17.7148 15.6994 17.2071 16.2071C16.6994 16.7148 16.0109 17 15.2929 17H8V15H15.2929C15.4804 15 15.6603 14.9255 15.7929 14.7929C15.9255 14.6603 16 14.4804 16 14.2929V2.70711C16 2.51957 15.9255 2.33972 15.7929 2.20711C15.6603 2.0745 15.4804 2 15.2929 2Z" fill="white"/>
<path fill-rule="evenodd" clip-rule="evenodd" d="M4.41424 9L6.20714 10.7929L4.79292 12.2071L0.585815 8L4.79292 3.79289L6.20714 5.20711L4.41424 7H12.5V9H4.41424Z" fill="white"/>
</svg>
